<?xml version="1.0" standalone="no"?>
<!DOCTYPE svg PUBLIC "-//W3C//DTD SVG 20010904//EN"
 "http://www.w3.org/TR/2001/REC-SVG-20010904/DTD/svg10.dtd">
<svg version="1.0" xmlns="http://www.w3.org/2000/svg"
 width="225.000000pt" height="225.000000pt" viewBox="0 0 225.000000 225.000000"
 preserveAspectRatio="xMidYMid meet">

<g transform="translate(0.000000,225.000000) scale(0.100000,-0.100000)"
fill="#FB850E" stroke="none">
<path d="M1067 2239 c-162 -26 -275 -156 -285 -324 -6 -113 20 -179 103 -262
52 -51 72 -64 129 -82 38 -12 87 -21 111 -21 24 0 73 9 111 21 57 18 77 31
129 82 83 83 109 149 103 262 -6 100 -33 161 -103 231 -76 76 -188 111 -298
93z m143 -94 c61 -21 112 -66 145 -127 24 -43 29 -65 29 -118 -1 -75 -18 -121
-65 -175 -99 -113 -289 -113 -388 0 -47 54 -64 100 -65 175 -1 178 176 304
344 245z"/>
<path d="M390 1864 c-56 -20 -119 -64 -154 -105 -119 -140 -104 -355 32 -480
24 -23 42 -42 40 -43 -2 -2 -27 -16 -56 -31 -112 -60 -217 -208 -241 -339 -15
-83 -14 -289 1 -304 9 -9 97 -12 335 -12 312 0 323 1 333 20 8 14 8 26 0 40
-10 19 -21 20 -300 20 l-290 0 0 105 c0 170 49 279 165 367 76 58 145 80 245
81 69 0 97 -5 151 -26 73 -30 90 -32 107 -15 21 21 13 48 -20 68 -18 11 -37
21 -41 23 -4 1 19 30 52 64 51 52 63 72 82 133 27 90 22 163 -16 249 -32 71
-103 142 -173 173 -63 29 -190 35 -252 12z m231 -99 c162 -83 188 -309 48
-428 -83 -71 -189 -83 -290 -31 -173 87 -185 344 -22 445 85 53 177 57 264 14z"/>
<path d="M1643 1866 c-181 -59 -280 -252 -224 -436 19 -61 31 -81 82 -133 33
-34 56 -63 52 -64 -4 -2 -23 -12 -40 -23 -34 -20 -42 -47 -21 -68 17 -17 34
-15 107 15 54 21 82 26 151 26 100 -1 169 -23 245 -81 116 -88 165 -197 165
-367 l0 -105 -290 0 c-279 0 -290 -1 -300 -20 -8 -14 -8 -26 0 -40 10 -19 21
-20 333 -20 238 0 326 3 335 12 15 15 16 221 1 304 -24 131 -129 279 -241 339
-29 15 -54 29 -56 31 -2 1 16 20 40 43 183 168 136 464 -90 572 -58 28 -186
36 -249 15z m224 -102 c115 -55 170 -191 128 -315 -44 -128 -187 -203 -317
-165 -222 64 -256 373 -53 479 82 42 154 43 242 1z"/>
<path d="M1044 1331 c-105 -27 -206 -118 -244 -219 -18 -46 -21 -72 -18 -137
6 -100 33 -161 103 -231 l51 -51 -52 -27 c-73 -38 -126 -86 -173 -157 -65 -97
-81 -165 -81 -340 0 -136 2 -149 19 -159 27 -14 925 -14 952 0 17 10 19 23 19
159 0 175 -16 243 -81 340 -47 71 -100 119 -173 157 l-52 27 51 51 c70 70 97
131 103 231 5 104 -19 173 -89 250 -66 71 -137 105 -233 110 -39 3 -85 1 -102
-4z m191 -105 c55 -25 109 -80 133 -135 8 -20 15 -66 16 -102 0 -55 -5 -74
-31 -120 -103 -182 -358 -182 -458 2 -24 44 -29 65 -29 119 1 75 18 121 65
175 47 53 119 85 194 85 42 0 75 -7 110 -24z m68 -624 c160 -79 237 -216 237
-419 l0 -93 -415 0 -415 0 0 93 c0 189 67 322 204 402 76 44 122 55 227 52 85
-2 103 -6 162 -35z"/>
</g>
</svg>
